<?xml version="1.0" standalone="no"?>
<!DOCTYPE svg PUBLIC "-//W3C//DTD SVG 20010904//EN"
 "http://www.w3.org/TR/2001/REC-SVG-20010904/DTD/svg10.dtd">
<svg version="1.0" xmlns="http://www.w3.org/2000/svg"
 width="960" height="960" viewBox="0 0 960 960"
 preserveAspectRatio="xMidYMid meet">

<g transform="translate(40,600) scale(0.120000,-0.120000)" stroke="none">
<path d="M100 1385 l0 -915 3495 0 3495 0 0 915 0 915 -1485 0 -1485 0 0 -40
0 -40 1443 -2 1442 -3 0 -830 0 -830 -3407 -3 -3408 -2 0 835 0 835 1850 0
1850 0 0 40 0 40 -1895 0 -1895 0 0 -915z"/>
<path d="M2668 1610 c-154 -19 -273 -73 -363 -164 -101 -100 -144 -223 -132
-374 14 -182 101 -312 259 -389 96 -47 169 -63 308 -70 140 -6 240 4 402 43
l108 26 0 239 0 239 -262 0 -263 0 3 -90 3 -90 110 0 109 0 0 -101 0 -102 -97
6 c-134 8 -218 35 -281 92 -71 64 -95 125 -96 240 -1 79 2 97 27 147 33 67 80
111 157 147 50 24 66 26 180 26 140 -1 182 -12 310 -86 37 -21 72 -39 79 -39
7 0 11 35 11 114 l0 113 -77 26 c-43 14 -104 30 -136 36 -82 15 -280 21 -359
11z"/>
<path d="M3320 1115 l0 -485 150 0 150 0 0 277 c0 165 4 273 9 267 5 -5 63
-128 129 -274 l120 -265 117 0 116 0 128 288 c70 158 131 290 134 294 4 3 7
-127 7 -290 l0 -297 155 0 155 0 0 485 0 485 -285 0 -285 0 0 -120 0 -120 30
0 c17 0 30 -5 30 -12 0 -7 -40 -94 -89 -193 l-88 -180 -91 182 c-51 101 -92
187 -92 193 0 5 16 10 35 10 l35 0 0 120 0 120 -285 0 -285 0 0 -485z"/>
<path d="M4768 1594 c-5 -4 -8 -223 -8 -487 l0 -479 308 5 c340 5 393 12 510
69 92 44 183 136 224 225 28 58 33 82 36 164 3 70 0 112 -13 155 -47 163 -192
285 -395 330 -57 12 -146 17 -365 21 -159 3 -293 2 -297 -3z m594 -203 c76
-29 141 -94 163 -162 13 -38 16 -74 13 -139 -4 -76 -8 -95 -34 -137 -34 -56
-104 -106 -177 -128 -32 -9 -92 -15 -164 -15 l-113 0 0 298 c0 164 3 302 8
306 4 4 61 6 127 4 94 -4 133 -9 177 -27z"/>
<path d="M5917 1593 c-4 -3 -7 -222 -7 -485 l0 -478 415 0 415 0 0 90 0 90
-270 0 -271 0 3 123 3 122 248 3 247 2 0 90 0 90 -250 0 -251 0 3 88 3 87 268
3 267 2 0 90 0 90 -408 0 c-225 0 -412 -3 -415 -7z"/>
<path d="M110 375 c0 -16 6 -25 15 -25 12 0 15 -18 15 -105 0 -87 -3 -105 -15
-105 -9 0 -15 -9 -15 -25 0 -25 2 -26 58 -23 50 3 57 6 60 25 2 16 -2 23 -12
23 -23 0 -24 205 -1 214 8 3 15 15 15 26 0 18 -6 20 -60 20 -57 0 -60 -1 -60
-25z"/>
<path d="M280 244 l0 -155 28 3 27 3 0 108 c0 59 2 107 5 106 3 0 37 -49 75
-109 65 -103 72 -110 103 -110 l32 0 0 155 0 155 -30 0 -29 0 -3 -107 -3 -108
-70 107 c-65 101 -72 108 -102 108 l-33 0 0 -156z"/>
<path d="M645 248 l53 -153 35 -3 34 -3 52 146 c28 81 51 151 51 156 0 5 -13
9 -29 9 -29 0 -31 -3 -56 -87 -49 -165 -47 -160 -56 -138 -5 11 -22 66 -39
123 l-32 102 -33 0 -34 0 54 -152z"/>
<path d="M920 245 l0 -155 90 0 c89 0 90 0 90 25 0 24 -3 25 -60 25 l-60 0 0
40 0 40 50 0 c47 0 50 2 50 25 0 23 -3 25 -50 25 l-50 0 0 40 0 40 55 0 c52 0
55 1 55 25 0 25 -1 25 -85 25 l-85 0 0 -155z"/>
<path d="M1160 245 l0 -155 30 0 30 0 0 60 c0 54 2 60 20 60 15 0 32 -18 58
-60 33 -53 41 -60 70 -60 17 0 32 2 32 5 0 9 -52 89 -72 111 -19 21 -19 22 11
52 49 48 39 110 -20 131 -18 6 -61 11 -95 11 l-64 0 0 -155z m138 72 c4 -37
-13 -57 -49 -57 -28 0 -29 2 -29 46 l0 45 38 -3 c32 -3 37 -7 40 -31z"/>
<path d="M1410 375 c0 -23 4 -25 45 -25 l45 0 0 -130 0 -130 30 0 30 0 0 130
0 130 45 0 c41 0 45 2 45 25 l0 25 -120 0 -120 0 0 -25z"/>
<path d="M1700 245 l0 -155 90 0 c89 0 90 0 90 25 0 24 -3 25 -60 25 l-60 0 0
40 0 40 50 0 c47 0 50 2 50 25 0 23 -3 25 -50 25 l-50 0 0 40 0 40 55 0 c52 0
55 1 55 25 0 25 -1 25 -85 25 l-85 0 0 -155z"/>
<path d="M1930 245 l0 -155 35 0 35 0 0 60 c0 54 2 60 20 60 15 0 32 -18 58
-60 33 -53 41 -60 70 -60 17 0 32 3 32 8 0 10 -47 81 -73 109 l-20 22 32 26
c22 19 31 35 31 57 0 66 -38 88 -151 88 l-69 0 0 -155z m150 84 c17 -31 -11
-69 -50 -69 -29 0 -30 2 -30 45 0 45 0 45 35 45 24 0 37 -6 45 -21z"/>
<path d="M2350 245 l0 -155 85 0 c84 0 85 0 85 25 0 24 -3 25 -55 25 l-55 0 0
40 0 40 50 0 c47 0 50 2 50 25 0 23 -3 25 -50 25 l-50 0 0 40 0 40 55 0 c52 0
55 1 55 25 0 25 -1 25 -85 25 l-85 0 0 -155z"/>
<path d="M2560 395 c0 -2 18 -34 40 -70 22 -36 40 -71 40 -78 0 -6 -21 -43
-45 -82 l-45 -70 31 -3 c38 -4 40 -2 78 67 l29 54 31 -61 c29 -58 33 -62 66
-62 19 0 35 2 35 5 0 2 -20 38 -46 79 l-45 75 34 53 c63 99 63 98 24 98 -32 0
-37 -5 -63 -55 -16 -30 -31 -55 -34 -55 -3 0 -18 25 -33 55 -25 51 -29 55 -62
55 -19 0 -35 -2 -35 -5z"/>
<path d="M2870 245 l0 -155 30 0 c30 0 30 1 30 55 l0 55 39 0 c52 0 104 36
114 80 20 79 -31 120 -148 120 l-65 0 0 -155z m138 93 c7 -7 12 -24 12 -38 0
-35 -17 -50 -57 -50 -33 0 -33 0 -33 50 0 50 0 50 33 50 18 0 38 -5 45 -12z"/>
<path d="M3140 245 l0 -155 90 0 c89 0 90 0 90 25 0 24 -3 25 -60 25 l-60 0 0
40 0 40 50 0 c47 0 50 2 50 25 0 23 -3 25 -50 25 l-50 0 0 40 0 40 55 0 c52 0
55 1 55 25 0 25 -1 25 -85 25 l-85 0 0 -155z"/>
<path d="M3380 245 l0 -155 30 0 30 0 0 60 c0 54 2 60 20 60 15 0 32 -18 58
-60 33 -53 41 -60 70 -60 17 0 32 2 32 5 0 9 -52 89 -72 111 -19 21 -19 22 11
52 49 48 39 110 -20 131 -18 6 -61 11 -95 11 l-64 0 0 -155z m139 83 c13 -32
-9 -62 -48 -66 -31 -3 -31 -3 -31 42 0 46 0 46 35 46 28 0 38 -5 44 -22z"/>
<path d="M3630 375 c0 -23 4 -25 45 -25 l45 0 0 -130 0 -130 30 0 30 0 0 130
0 130 45 0 c41 0 45 2 45 25 l0 25 -120 0 -120 0 0 -25z"/>
</g>
</svg>
